<svg width="24" height="24" viewBox="0 0 24 24" fill="none" xmlns="http://www.w3.org/2000/svg">
<path d="M4.05025 10.0508C1.31658 12.7845 1.31658 17.2166 4.05025 19.9503C6.78392 22.6839 11.2161 22.6839 13.9497 19.9503L17.899 16.001M12.1001 2.00098L6.5 7.60103M22 11.9L20 13.9" stroke="#141B34" stroke-width="1.5" stroke-linecap="round"/>
<path d="M11.1213 12.8797C12.2929 14.0512 12.2929 15.9507 11.1213 17.1223C9.94975 18.2939 8.05025 18.2939 6.87868 17.1223C5.70711 15.9507 5.70711 14.0512 6.87868 12.8797C8.05025 11.7081 9.94975 11.7081 11.1213 12.8797Z" stroke="#141B34" stroke-width="1.5" stroke-linecap="round"/>
<path d="M6.87891 12.8795L14 5.75787M17.7576 2L16 3.75772M22 6.24338L15.3639 12.8795" stroke="#141B34" stroke-width="1.5" stroke-linecap="round"/>
</svg>
